<?xml version="1.0" encoding="utf-8"?>
<!-- Generator: Adobe Illustrator 20.1.0, SVG Export Plug-In . SVG Version: 6.00 Build 0)  -->
<svg version="1.1" id="Layer_1" xmlns="http://www.w3.org/2000/svg" xmlns:xlink="http://www.w3.org/1999/xlink" x="0px" y="0px"
	 viewBox="0 0 28.6 28.7" style="enable-background:new 0 0 28.6 28.7;" xml:space="preserve">
<style type="text/css">
	.st0{clip-path:url(#SVGID_2_);}
	.st1{fill:#E1A825;}
</style>
<g transform="translate(-1764 153)">
	<g>
		<g>
			<defs>
				<path id="SVGID_1_" d="M1792-128.7l-4.9-4.9c1.3-2,2-4.3,2-6.7c0-6.9-5.6-12.4-12.5-12.4s-12.4,5.6-12.4,12.5
					c0,6.9,5.6,12.4,12.5,12.4c2.4,0,4.7-0.7,6.7-2l4.9,4.9c0.3,0.3,0.9,0.3,1.2,0l2.5-2.5C1792.4-127.7,1792.4-128.3,1792-128.7
					 M1776.7-131.5c-4.9,0-8.8-3.9-8.8-8.8s3.9-8.8,8.8-8.8c4.9,0,8.8,3.9,8.8,8.8l0,0C1785.7-135.5,1781.7-131.5,1776.7-131.5
					C1776.8-131.5,1776.7-131.5,1776.7-131.5"/>
			</defs>
			<use xlink:href="#SVGID_1_"  style="overflow:visible;fill:#E1A825;"/>
			<clipPath id="SVGID_2_">
				<use xlink:href="#SVGID_1_"  style="overflow:visible;"/>
			</clipPath>
			<g class="st0">
				<rect x="1758.8" y="-158.2" class="st1" width="39" height="39"/>
			</g>
		</g>
	</g>
</g>
</svg>
